<?xml version="1.0" standalone="no"?>
<!DOCTYPE svg PUBLIC "-//W3C//DTD SVG 20010904//EN"
 "http://www.w3.org/TR/2001/REC-SVG-20010904/DTD/svg10.dtd">
<svg version="1.0" xmlns="http://www.w3.org/2000/svg"
 width="512.000000pt" height="512.000000pt" viewBox="0 0 512.000000 512.000000"
 preserveAspectRatio="xMidYMid meet">
<metadata>
Created by potrace 1.14, written by Peter Selinger 2001-2017
</metadata>
<g transform="translate(0.000000,512.000000) scale(0.100000,-0.100000)"
fill="#000000" stroke="none">
<path d="M1530 5114 c0 -3 31 -114 69 -247 67 -233 94 -338 105 -402 53 -307
61 -394 61 -660 0 -178 -8 -353 -19 -410 -2 -11 -7 -42 -10 -69 -6 -44 -27
-164 -41 -239 -47 -242 -184 -624 -312 -867 -177 -335 -346 -562 -637 -857
-230 -234 -259 -274 -313 -433 -36 -104 -41 -271 -12 -383 68 -265 259 -456
529 -528 72 -19 236 -20 315 -2 160 35 251 90 414 248 62 60 137 133 166 160
28 28 120 116 203 197 126 122 160 150 207 167 156 59 328 -16 385 -167 39
-102 17 -227 -51 -303 -64 -69 -61 -63 -40 -85 17 -18 37 -37 154 -142 l48
-44 35 39 c42 47 119 161 127 188 3 11 13 39 21 62 20 53 27 110 27 192 -1 65
-26 188 -42 206 -5 5 -9 15 -9 22 0 8 -21 45 -46 83 -167 254 -499 345 -763
210 -84 -43 -107 -63 -340 -288 -362 -351 -394 -381 -444 -408 -70 -38 -132
-52 -224 -49 -70 1 -89 6 -156 39 -93 46 -156 111 -200 204 -28 59 -31 77 -32
157 0 105 4 123 41 200 40 81 299 341 510 512 103 83 363 263 380 263 4 0 15
6 23 14 24 22 272 148 381 195 240 102 540 192 750 226 19 3 46 7 60 10 52 10
101 16 295 35 82 8 503 5 565 -4 19 -3 58 -8 85 -11 46 -5 263 -39 310 -49 61
-12 253 -64 414 -112 101 -30 189 -54 195 -54 8 0 10 418 9 1548 -1 851 -2
1568 -3 1595 l0 47 -1595 0 c-877 0 -1595 -3 -1595 -6z"/>
</g>
</svg>
