<?xml version="1.0" standalone="no"?>
<!DOCTYPE svg PUBLIC "-//W3C//DTD SVG 20010904//EN"
 "http://www.w3.org/TR/2001/REC-SVG-20010904/DTD/svg10.dtd">
<svg version="1.0" xmlns="http://www.w3.org/2000/svg"
 width="750.000000pt" height="750.000000pt" viewBox="0 0 750.000000 750.000000"
 preserveAspectRatio="xMidYMid meet">
<metadata>
Created by potrace 1.14, written by Peter Selinger 2001-2017
</metadata>
<g transform="translate(0.000000,750.000000) scale(0.100000,-0.100000)"
fill="#000000" stroke="none">
<path d="M3719 6636 c-45 -16 -152 -75 -160 -88 -3 -5 -8 -9 -10 -9 -15 2 -48
-13 -43 -20 3 -5 -4 -9 -15 -9 -11 0 -26 -6 -33 -13 -7 -7 -33 -24 -58 -38
-25 -13 -47 -26 -50 -29 -3 -3 -18 -12 -35 -20 -16 -8 -33 -19 -37 -25 -4 -5
-8 -6 -8 -2 0 5 -12 -1 -26 -12 -15 -12 -32 -21 -40 -21 -7 0 -14 -4 -16 -8
-5 -13 -106 -71 -112 -65 -3 4 -6 1 -6 -5 0 -7 -7 -12 -15 -12 -8 0 -15 -4
-15 -8 0 -4 -12 -13 -27 -19 -16 -7 -50 -26 -78 -42 -27 -17 -79 -47 -115 -67
-36 -21 -67 -40 -70 -43 -3 -3 -31 -19 -62 -36 -32 -16 -58 -33 -58 -37 0 -5
-3 -7 -7 -6 -10 3 -106 -52 -115 -67 -4 -5 -8 -6 -8 -1 0 5 -8 3 -17 -5 -10
-8 -35 -24 -55 -34 -21 -11 -38 -23 -38 -26 0 -4 -12 -10 -27 -14 -15 -3 -30
-10 -33 -13 -8 -11 -110 -72 -121 -72 -5 0 -9 -5 -9 -11 0 -5 -4 -8 -9 -5 -5
3 -14 -1 -21 -9 -7 -8 -18 -15 -24 -15 -7 0 -18 -6 -24 -12 -7 -7 -16 -13 -20
-13 -4 -1 -26 -13 -50 -28 -23 -15 -58 -35 -77 -44 -19 -9 -35 -20 -35 -25 0
-4 -6 -8 -14 -8 -7 0 -19 -6 -26 -14 -6 -8 -19 -12 -27 -9 -10 4 -14 2 -10 -4
4 -6 -5 -16 -21 -22 -34 -15 -85 -42 -92 -50 -6 -8 -75 -47 -120 -69 -19 -9
-37 -20 -40 -23 -3 -3 -50 -32 -104 -63 -95 -54 -146 -95 -146 -117 0 -5 -4
-9 -8 -9 -10 0 -11 -12 -15 -132 -2 -65 0 -98 7 -98 8 0 8 -3 0 -8 -15 -11
-13 -2607 3 -2643 13 -31 65 -82 102 -101 15 -7 49 -27 77 -45 29 -18 54 -30
56 -27 3 2 13 -5 23 -16 10 -11 24 -20 30 -20 7 0 24 -9 39 -21 14 -11 26 -17
26 -12 0 4 4 4 8 -2 9 -13 40 -33 75 -48 15 -6 27 -15 27 -19 0 -4 4 -8 10 -8
5 0 44 -20 86 -45 41 -25 78 -45 81 -45 2 0 24 -14 49 -30 24 -17 44 -29 44
-26 0 6 65 -35 90 -56 8 -7 15 -12 15 -10 0 8 41 -13 51 -26 6 -8 16 -12 22
-8 7 4 12 3 12 -3 0 -5 12 -16 28 -24 15 -7 67 -37 116 -65 49 -29 91 -52 93
-52 3 0 17 -9 31 -19 37 -26 133 -81 155 -88 9 -3 17 -10 17 -15 0 -5 5 -6 10
-3 6 3 10 1 10 -4 0 -6 7 -11 15 -11 8 0 15 -4 15 -10 0 -5 9 -10 19 -10 11 0
21 -4 23 -8 2 -5 33 -26 70 -46 37 -21 70 -42 74 -47 3 -5 9 -7 13 -5 4 3 17
-4 29 -14 12 -11 28 -20 37 -20 8 0 15 -4 15 -9 0 -5 11 -12 25 -15 14 -4 25
-11 25 -16 0 -6 9 -10 19 -10 10 0 21 -7 25 -15 3 -8 15 -15 26 -15 11 0 20
-4 20 -10 0 -5 7 -10 15 -10 8 0 15 -4 15 -10 0 -5 6 -10 13 -10 8 0 42 -18
75 -40 34 -22 62 -37 62 -34 0 3 7 -2 16 -10 8 -9 22 -16 30 -16 8 0 14 -4 14
-10 0 -5 6 -10 14 -10 8 0 22 -7 30 -16 9 -8 16 -13 16 -9 0 3 13 -3 29 -14
16 -12 34 -21 40 -21 6 0 11 -4 11 -9 0 -5 8 -12 18 -15 21 -8 55 -28 76 -45
9 -7 16 -10 16 -6 0 5 8 1 18 -7 27 -24 89 -40 130 -35 44 6 102 28 102 39 0
4 4 8 9 8 13 0 204 112 213 125 4 5 8 6 8 2 0 -5 13 1 29 12 16 12 34 21 40
21 6 0 11 5 11 10 0 6 4 10 9 10 10 0 153 80 161 90 3 4 20 13 38 21 17 8 32
18 32 22 0 5 5 5 10 2 6 -3 10 -2 10 2 0 5 26 22 58 38 31 17 59 33 62 36 3 4
24 16 47 28 23 11 45 25 48 31 4 6 11 8 16 5 5 -4 12 1 15 9 3 9 10 14 14 11
4 -3 18 3 31 13 13 10 44 30 69 43 25 13 47 26 50 29 3 3 19 12 35 20 17 8 32
17 35 20 4 4 39 24 95 54 11 6 22 13 25 16 16 16 88 48 95 42 5 -4 5 -2 2 4
-3 6 6 17 21 25 15 7 56 30 91 51 34 21 65 38 67 38 3 0 21 11 42 24 65 41
187 110 191 107 2 -1 7 2 10 7 3 5 24 19 46 31 56 30 79 44 87 56 4 6 8 6 8 2
0 -4 17 4 37 18 21 14 43 25 50 25 7 0 13 4 13 10 0 5 16 16 36 25 19 8 48 24
65 35 16 12 29 19 29 15 0 -3 10 3 22 15 12 11 28 20 35 20 7 0 13 5 13 10 0
6 6 10 14 10 8 0 21 7 30 15 8 9 19 16 23 16 14 1 63 33 63 41 0 4 6 8 13 8 7
0 24 19 38 43 l24 42 2 1215 c2 668 3 1233 2 1255 0 22 0 72 0 110 1 70 1 84
0 108 0 6 1 26 1 42 3 55 -8 116 -25 141 -19 29 -52 63 -62 65 -5 1 -25 13
-45 25 -21 13 -42 24 -48 24 -5 0 -10 5 -10 12 0 6 -3 8 -7 5 -3 -4 -13 -1
-22 6 -9 8 -36 25 -61 38 -25 13 -47 26 -50 29 -3 3 -18 12 -35 20 -16 8 -41
22 -55 31 -45 30 -115 70 -132 76 -10 3 -18 8 -18 12 0 4 -16 13 -35 21 -19 8
-35 17 -35 22 0 4 -5 8 -11 8 -7 0 -34 13 -60 30 -27 16 -49 27 -49 23 0 -3
-9 4 -20 17 -11 13 -20 20 -20 16 0 -3 -17 4 -37 17 -21 13 -45 27 -53 30 -8
4 -33 19 -55 32 -22 14 -48 28 -57 32 -10 3 -18 10 -18 15 0 5 -4 7 -9 4 -5
-3 -14 1 -21 9 -7 8 -16 15 -21 15 -7 0 -60 30 -139 79 -14 9 -28 14 -32 13
-5 -1 -8 2 -8 7 0 5 -10 13 -22 16 -13 4 -37 18 -54 31 -17 13 -34 20 -38 17
-3 -4 -6 -2 -6 4 0 6 -8 13 -17 16 -10 4 -40 20 -68 37 -27 17 -57 33 -65 37
-8 4 -17 9 -20 12 -3 4 -16 12 -30 19 -57 28 -115 63 -121 74 -4 6 -12 7 -18
4 -6 -4 -11 -2 -11 3 0 6 -7 11 -15 11 -8 0 -15 3 -15 8 0 4 -10 12 -23 18
-47 23 -112 59 -117 65 -3 3 -25 16 -50 30 -25 13 -47 26 -50 29 -13 13 -70
40 -70 33 0 -4 -4 -3 -8 3 -10 16 -92 66 -92 57 0 -5 -4 -3 -8 3 -7 11 -22 21
-132 82 -25 14 -48 29 -51 34 -3 6 -8 9 -10 8 -2 -1 -16 3 -30 9 -49 18 -94
21 -130 7z"/>
</g>
</svg>
